{"title":"Green Lantern (2011) (EXTENDED Cut) BDRip[Hindi]480p Sohi","uid":6777317,"size":990441621,"categoryP":"video","categoryS":"movies","magnet":"?xt=urn:btih:dd3180379c045ff6abab3f88d39db4af45080e9e&amp;dn=Green+Lantern+%282011%29+%28EXTENDED+Cut%29+BDRip%5BHindi%5D480p+Sohi+&amp;tr=udp%3A%2F%2Ftracker.openbittorrent.com%3A80&amp;tr=udp%3A%2F%2Fopen.demonii.com%3A1337&amp;tr=udp%3A%2F%2Ftracker.coppersurfer.tk%3A6969&amp;tr=udp%3A%2F%2Fexodus.desync.com%3A6969","seeders":0,"leechers":1,"uploader":"kingsaab","files":-1,"time":1319786311,"description":" &lt;a href=&quot;http://makeagif.com/media/9-20-2011/9qDvdz.gif&quot; rel=&quot;nofollow&quot; target=&quot;_NEW&quot;&gt;http://makeagif.com/media/9-20-2011/9qDvdz.gif&lt;/a&gt;\n &lt;a href=&quot;\nhttp://i.imgur.com/azxj2.png&quot; rel=&quot;nofollow&quot; target=&quot;_NEW&quot;&gt;\nhttp://i.imgur.com/azxj2.png&lt;/a&gt;\n\nFormat                                           : Matroska\nFile size                        : 945 MiB\nDuration                                        : 2h 3mn\nOverall bit rate                                : 1 068 Kbps\n\n\nVideo\nID                                              : 1\nFormat                                          : MPEG-4 Visual\nFormat profile                                  : Advanced Simple@L5\nFormat settings, BVOP            : Yes\nFormat settings, QPel            : No\nFormat settings, GMC                    : No warppoints\nFormat settings, Matrix          : Default (H.263)\nDuration                                        : 2h 3mn\nBit rate                                        : 855 Kbps\nWidth                            : 720 pixels\nHeight                                          : 304 pixels\nDisplay aspect ratio                    : 2.35:1\nFrame rate                                      : 23.976 fps\nColor space                      : YUV\nChroma subsampling                      : 4:2:0\nBit depth                        : 8 bits\nScan type                        : Progressive\nCompression mode                                : Lossy\nBits/(Pixel*Frame)                      : 0.163\nStream size                      : 756 MiB (80%)\n\n\nAudio\nID                                              : 2\nFormat                                          : AC-3\nFormat/Info                      : Audio Coding 3\nMode extension                                  : CM (complete main)\nMuxing mode                      : Header stripping\nCodec ID                                        : A_AC3\nDuration                                        : 2h 3mn\nBit rate mode                    : Constant\nBit rate                                        : 192 Kbps\nChannel(s)                                      : 2 channels\nChannel positions                : Front: L R\nSampling rate                    : 48.0 KHz\nBit depth                        : 16 bits\nCompression mode                                : Lossy\nStream size                      : 170 MiB (18%)\n\n\n &lt;a href=&quot;\nhttp://i.imgur.com/RWK8z.png&quot; rel=&quot;nofollow&quot; target=&quot;_NEW&quot;&gt;\nhttp://i.imgur.com/RWK8z.png&lt;/a&gt; &lt;a href=&quot;\nhttp://i.imgur.com/azxj2.png&quot; rel=&quot;nofollow&quot; target=&quot;_NEW&quot;&gt;\nhttp://i.imgur.com/azxj2.png&lt;/a&gt; &lt;a href=&quot;\nhttp://i.imgur.com/KNgfK.png&quot; rel=&quot;nofollow&quot; target=&quot;_NEW&quot;&gt;\nhttp://i.imgur.com/KNgfK.png&lt;/a&gt; &lt;a href=&quot;\nhttp://i.imgur.com/iH0HW.png&quot; rel=&quot;nofollow&quot; target=&quot;_NEW&quot;&gt;\nhttp://i.imgur.com/iH0HW.png&lt;/a&gt; &lt;a href=&quot;\nhttp://i.imgur.com/2cre8.png&quot; rel=&quot;nofollow&quot; target=&quot;_NEW&quot;&gt;\nhttp://i.imgur.com/2cre8.png&lt;/a&gt; &lt;a href=&quot;\nhttp://i.imgur.com/3cE1P.png&quot; rel=&quot;nofollow&quot; target=&quot;_NEW&quot;&gt;\nhttp://i.imgur.com/3cE1P.png&lt;/a&gt; &lt;a href=&quot;\nhttp://i.imgur.com/7OtWq.png&quot; rel=&quot;nofollow&quot; target=&quot;_NEW&quot;&gt;\nhttp://i.imgur.com/7OtWq.png&lt;/a&gt; &lt;a href=&quot;\nhttp://i.imgur.com/zxEAU.png&quot; rel=&quot;nofollow&quot; target=&quot;_NEW&quot;&gt;\nhttp://i.imgur.com/zxEAU.png&lt;/a&gt; &lt;a href=&quot;\nhttp://i.imgur.com/07ySv.png&quot; rel=&quot;nofollow&quot; target=&quot;_NEW&quot;&gt;\nhttp://i.imgur.com/07ySv.png&lt;/a&gt;\n","torrent":{"xt":"urn:btih:dd3180379c045ff6abab3f88d39db4af45080e9e","amp;dn":"Green+Lantern+%282011%29+%28EXTENDED+Cut%29+BDRip%5BHindi%5D480p+Sohi+","amp;tr":["udp%3A%2F%2Ftracker.openbittorrent.com%3A80","udp%3A%2F%2Fopen.demonii.com%3A1337","udp%3A%2F%2Ftracker.coppersurfer.tk%3A6969","udp%3A%2F%2Fexodus.desync.com%3A6969"],"infoHash":"dd3180379c045ff6abab3f88d39db4af45080e9e","infoHashBuffer":{"type":"Buffer","data":[221,49,128,55,156,4,95,246,171,171,63,136,211,157,180,175,69,8,14,158]},"announce":[],"urlList":[]}}